<?xml version="1.0" standalone="no"?>
<!DOCTYPE svg PUBLIC "-//W3C//DTD SVG 20010904//EN"
 "http://www.w3.org/TR/2001/REC-SVG-20010904/DTD/svg10.dtd">
<svg version="1.0" xmlns="http://www.w3.org/2000/svg"
 width="300.000000pt" height="300.000000pt" viewBox="0 0 300.000000 300.000000"
 preserveAspectRatio="xMidYMid meet">
<metadata>
Created by potrace 1.10, written by Peter Selinger 2001-2011
</metadata>
<g transform="translate(0.000000,300.000000) scale(0.100000,-0.100000)"
fill="#000000" stroke="none">
<path d="M570 1990 c-155 -56 -333 -240 -376 -388 -13 -44 -14 -62 -5 -99 21
-82 52 -112 126 -122 l39 -6 -69 -35 c-127 -64 -215 -142 -215 -190 0 -19 46
-29 83 -19 48 13 173 96 274 182 47 40 94 80 106 89 27 21 185 53 220 44 14
-3 28 -15 32 -25 15 -47 -52 -162 -164 -281 -74 -79 -82 -94 -54 -104 12 -5
29 8 61 46 114 134 262 257 377 313 81 39 155 56 155 34 0 -29 -104 -175 -171
-239 -38 -37 -69 -72 -69 -78 0 -6 8 -13 19 -17 14 -4 39 16 102 81 82 84 201
178 307 242 29 18 55 32 58 32 3 0 -10 -22 -29 -49 -63 -88 -94 -164 -82 -202
10 -30 59 -51 103 -43 110 20 334 193 405 313 18 30 21 31 28 15 23 -64 118
-80 259 -44 109 27 385 117 565 182 150 55 151 55 143 63 -2 3 -79 -18 -169
-46 -332 -104 -386 -120 -503 -150 -150 -38 -249 -38 -254 -1 -5 32 36 90 119
173 60 61 66 70 53 84 -16 16 -26 11 -158 -78 -51 -34 -61 -38 -83 -28 -39 18
-72 13 -133 -20 -67 -35 -182 -127 -206 -164 -32 -49 31 -74 99 -39 50 26 189
115 215 137 40 36 27 -8 -22 -77 -103 -143 -312 -294 -393 -284 -25 3 -28 7
-25 36 2 34 28 88 87 181 62 99 13 109 -121 25 -49 -30 -98 -64 -110 -75 -32
-29 -36 -23 -14 21 26 51 25 66 -6 86 -23 16 -29 16 -87 0 -75 -21 -176 -74
-239 -127 -26 -21 -49 -39 -52 -39 -2 0 2 13 10 30 44 88 17 140 -78 147 -30
3 -74 -2 -100 -10 -27 -8 -48 -13 -48 -10 0 3 18 26 41 51 150 171 226 372
168 446 -45 57 -123 70 -219 36z m162 -21 c33 -18 50 -71 38 -124 -20 -89
-117 -252 -217 -365 -53 -59 -121 -85 -205 -77 -172 15 -170 202 5 393 126
137 298 216 379 173z m1144 -371 c-20 -23 -34 -48 -32 -55 3 -7 -1 -10 -10 -6
-16 6 -19 23 -4 23 6 0 10 8 10 17 0 10 12 27 28 40 43 35 47 27 8 -19z m-83
15 c4 -3 -35 -33 -86 -66 -101 -65 -199 -118 -206 -111 -14 14 133 129 210
164 46 20 71 25 82 13z m-1390 -281 c-102 -85 -276 -192 -290 -179 -10 10 31
58 78 93 53 39 235 134 257 134 8 0 -13 -22 -45 -48z"/>
</g>
</svg>
